inDegrees=no
num_controls=7
num_derivatives=13
num_iterations=146
num_multipliers=7
num_parameters=0
num_slacks=7
num_states=26
objective=0.449511
objective_accelerations=0.045376
objective_balance=0.007325
objective_effort=0.034490
objective_height=0.358469
objective_ligament=0.003851
solver_duration=2105.370110
status=Solve_Succeeded
success=true
DataType=double
version=3
OpenSimVersion=4.5
endheader
time	/jointset/ground_pelvis/pelvis_tilt/value	/jointset/ground_pelvis/pelvis_tx/value	/jointset/ground_pelvis/pelvis_ty/value	/jointset/hip_l/hip_flexion_l/value	/jointset/hip_l/hip_adduction_l/value	/jointset/hip_l/hip_rotation_l/value	/jointset/back/lumbar_extension/value	/jointset/patellofemoral_l/patellar_flexion_l/value	/jointset/knee_l/knee_flexion_l/value	/jointset/knee_l/knee_adduction_l/value	/jointset/knee_l/knee_rotation_l/value	/jointset/ankle_l/ankle_angle_l/value	/jointset/subtalar_l/subtalar_angle_l/value	/jointset/ground_pelvis/pelvis_tilt/speed	/jointset/ground_pelvis/pelvis_tx/speed	/jointset/ground_pelvis/pelvis_ty/speed	/jointset/hip_l/hip_flexion_l/speed	/jointset/hip_l/hip_adduction_l/speed	/jointset/hip_l/hip_rotation_l/speed	/jointset/back/lumbar_extension/speed	/jointset/patellofemoral_l/patellar_flexion_l/speed	/jointset/knee_l/knee_flexion_l/speed	/jointset/knee_l/knee_adduction_l/speed	/jointset/knee_l/knee_rotation_l/speed	/jointset/ankle_l/ankle_angle_l/speed	/jointset/subtalar_l/subtalar_angle_l/speed	/forceset/tau_hip_flexion_l	/forceset/tau_hip_adduction_l	/forceset/tau_hip_rotation_l	/forceset/tau_knee_flexion_l	/forceset/tau_ankle_angle_l	/forceset/tau_subtalar_angle_l	/forceset/tau_lumbar_extension	lambda_cid13_p0	lambda_cid13_p1	lambda_cid13_p2	lambda_cid13_p3	lambda_cid13_p4	lambda_cid13_p5	lambda_cid14_p0	/jointset/ground_pelvis/pelvis_tilt/accel	/jointset/ground_pelvis/pelvis_tx/accel	/jointset/ground_pelvis/pelvis_ty/accel	/jointset/hip_l/hip_flexion_l/accel	/jointset/hip_l/hip_adduction_l/accel	/jointset/hip_l/hip_rotation_l/accel	/jointset/back/lumbar_extension/accel	/jointset/patellofemoral_l/patellar_flexion_l/accel	/jointset/knee_l/knee_flexion_l/accel	/jointset/knee_l/knee_adduction_l/accel	/jointset/knee_l/knee_rotation_l/accel	/jointset/ankle_l/ankle_angle_l/accel	/jointset/subtalar_l/subtalar_angle_l/accel	gamma_cid13_p0	gamma_cid13_p1	gamma_cid13_p2	gamma_cid13_p3	gamma_cid13_p4	gamma_cid13_p5	gamma_cid14_p0
0.5	-0.4281037875102606	-0.0668915734574226	0.7763071695011812	1.201423325021372	-0.3092055875510847	-0.06350724206406656	-0.3237937867473478	0.6387618920559555	0.6387618920559827	-0.1741586219066816	0.1745319722683435	0.02857252390626286	-0.04963142740747126	-0.7012498594029188	-0.2639321126427616	-0.445926719046907	2.217344059701387	-0.04407167804203835	0.5739772029387183	-0.6278513320017881	1.649302692652306	1.64930269265227	-0.002879705879742845	6.116547645894915e-06	0.2188060644679461	-0.02007659209795123	-0.2341000565178389	0.01595598479229031	-0.02085393433877981	-0.1980579071102836	0.1389859855928426	0.0444189211999639	0.2130375747608386	5.73703308481528	-23.3090760788289	6.755742184336643	-4.184363623486295	-608.6617700807149	-62.62513994620452	-31.11319613814788	0.5393510846697211	0.6269119279536062	-0.2847435907844287	-1.39230737124244	0.5299316205360369	-0.2679739101010391	1.651148783457274	-0.9886859316254104	-0.9886859316254106	0.0174194169876575	-0.031621424765243	-0.06895402284108965	0.513630107727313	-4.693061317606097e-08	-1.022288842237077e-06	2.860047581165697e-07	-1.181173000679695e-07	-1.859130079959378e-07	-9.333083736845006e-08	-1.622069439757416e-07
0.51	-0.4350878663440211	-0.0694992176096435	0.7718345967129119	1.223523332640429	-0.3096207856851807	-0.05778263057476037	-0.329989529778776	0.6552031528046091	0.6552031528046113	-0.1741877315826087	0.1745319837629722	0.03075645067634513	-0.04980756406945806	-0.6954752889074391	-0.2575705925551123	-0.4484964908147191	2.202360208994543	-0.03897847300007696	0.5708633296745294	-0.6112202501733569	1.638723549115374	1.638723549115344	-0.00293350724732122	1.013303288377945e-06	0.2179376582842817	-0.01516217697782606	-0.2419240833816793	0.01677234853349522	-0.02094624670718935	-0.1991927897798843	0.1387695022434868	0.04507265481731672	0.2191429868715776	5.449467075741259	-23.44035401073663	6.659834133138708	-4.185924126838755	-612.7818743941486	-62.26443616505386	-30.21571977889063	0.6100900601908765	0.6446681524043575	-0.2294281976090091	-1.596027772991812	0.4975251366355643	-0.3455245549697385	1.680641499109094	-1.126382635256877	-1.12638263525596	-0.01563215243333869	0.0156640082232751	-0.1020402186141784	0.4787538296885567	-6.853223406002366e-08	-9.329032419019662e-07	3.750626153468283e-07	-9.378568886494528e-08	-1.882879636034372e-07	-6.819686044560907e-08	-1.678631721884839e-07
0.52	-0.4420114834671859	-0.07204246734034116	0.7673390593613988	1.245464580981901	-0.3099853497307353	-0.05209164392217445	-0.3360166512686053	0.6715318513037869	0.6715318513037649	-0.1742171497199713	0.1745320679816569	0.03293044212409375	-0.04993487525713691	-0.6891575172838078	-0.2510532283381118	-0.4505196316957076	2.185592204184243	-0.03394486033374063	0.5672522355946642	-0.5941270236820037	1.626790242757251	1.626790242757228	-0.002941398167009775	2.066135870205258e-05	0.2168190000012145	-0.01031149723636339	-0.249748110245519	0.0175887122747003	-0.02103855907559144	-0.200327672449486	0.1385530188941309	0.04572638843466967	0.2252483989823173	5.154335072371329	-23.57249235913692	6.566559270260688	-4.175149390334981	-617.0236331107609	-61.95407346366543	-29.30191753000863	0.6479913103000604	0.6580807538238499	-0.1754174134197267	-1.749138191933531	0.5180131454110249	-0.36741807323626	1.743577716041703	-1.259518495863462	-1.259518495863441	0.02660150656562089	-0.02667116481100331	-0.119004442721679	0.50088303199481	-1.057971079647834e-07	-8.149716696168515e-07	5.455691293840308e-07	-5.411925640357057e-08	-2.010259461500811e-07	-3.668315316773192e-08	-1.82498154813076e-07
0.53	-0.4488693011611873	-0.07451984232768073	0.7628260364296366	1.267229428012572	-0.3102999698577746	-0.04643865476969034	-0.3418706659983064	0.687734480871694	0.6877344808716879	-0.1742467607892414	0.1745320333884867	0.03509198739273151	-0.0500141018788615	-0.6823209966638362	-0.2444028998332977	-0.4519919183552343	2.167095496157104	-0.02899054016732191	0.5632509204475483	-0.576615127062271	1.61352309568449	1.613523095684523	-0.002957176674427714	-1.198393831949502e-05	0.2154516050076416	-0.00554563035912187	-0.2573874309306852	0.01821850678435089	-0.02115739313254136	-0.2014958552810235	0.1383882436553164	0.04627600361228836	0.2311601835025793	4.877861342431732	-23.66404940093022	6.468379828133973	-4.140869235648703	-621.1723328683821	-61.59353833441422	-28.37537439872688	0.7142161393436542	0.6713326364145507	-0.1192203903175832	-1.94221703076316	0.4824462169865469	-0.4308721505209186	1.764114914329557	-1.392161046883403	-1.392161046874977	-0.01222321467904517	0.01061744492921098	-0.1513812612547717	0.4627127959705384	-1.510063683873374e-07	-6.777060085702405e-07	7.596111984350863e-07	-2.304768567323556e-09	-2.21462756519639e-07	2.939820493674533e-09	-2.008218584042479e-07
